<svg xmlns="http://www.w3.org/2000/svg" width="250.632" height="33.162"><path fill="#2AAAE2" d="M80.04 12.88c.472-.13 1.107-.277 1.905-.44.797-.162 1.774-.243 2.93-.243.96 0 1.763.14 2.406.415.65.277 1.16.672 1.54 1.185s.66 1.128.82 1.844c.17.72.25 1.51.25 2.37v7.06H88.3v-6.54c0-.89-.063-1.65-.185-2.27-.122-.62-.326-1.12-.61-1.51-.286-.39-.66-.67-1.124-.84-.46-.17-1.04-.25-1.74-.25-.75 0-1.39.04-1.94.122s-.9.155-1.06.22v11.08h-1.59v-12.2zm14.604 5.862c0-1.106.16-2.072.477-2.894.32-.822.74-1.51 1.25-2.064.52-.553 1.1-.965 1.76-1.233.66-.26 1.34-.4 2.04-.4 1.55 0 2.78.51 3.7 1.52.92 1.01 1.38 2.57 1.38 4.67 0 .13 0 .26-.01.39l-.03.37h-8.87c.05 1.55.438 2.738 1.15 3.568s1.86 1.247 3.42 1.247c.86 0 1.55-.08 2.05-.243.51-.16.87-.3 1.1-.413l.29 1.365c-.23.13-.65.283-1.28.46-.63.18-1.36.27-2.21.27-1.11 0-2.05-.164-2.83-.49-.78-.325-1.424-.78-1.93-1.37-.503-.584-.87-1.28-1.1-2.086-.23-.81-.34-1.69-.34-2.65zm8.963-1c-.033-1.32-.342-2.346-.928-3.08-.59-.732-1.42-1.098-2.5-1.098-.57 0-1.08.114-1.53.342-.45.228-.84.534-1.17.916-.34.383-.6.827-.78 1.33-.19.506-.3 1.035-.33 1.59h7.22zM118.4 12.44c.145.814.335 1.68.57 2.6.235.92.495 1.856.78 2.808.282.953.583 1.893.9 2.822.32.928.642 1.8.97 2.613.277-.617.57-1.37.882-2.256.31-.887.62-1.822.93-2.807.312-.983.6-1.977.87-2.98s.495-1.937.675-2.8h1.563c-.587 2.48-1.23 4.744-1.923 6.793-.694 2.05-1.458 3.994-2.292 5.832h-1.472c-.247-.574-.506-1.217-.776-1.924-.27-.7-.55-1.46-.837-2.27-.287-.8-.564-1.65-.833-2.53s-.524-1.79-.77-2.72c-.242.93-.498 1.84-.766 2.73-.26.89-.54 1.74-.82 2.55-.28.808-.56 1.56-.83 2.27-.27.71-.52 1.35-.77 1.915h-1.52c-.832-1.84-1.6-3.783-2.29-5.835s-1.33-4.314-1.91-6.79h1.687c.18.862.405 1.794.674 2.795.27 1 .56 1.99.87 2.976.31.986.628 1.918.946 2.8.316.88.614 1.63.892 2.25.31-.81.622-1.684.935-2.61.31-.93.607-1.868.88-2.814s.536-1.875.778-2.795c.246-.92.46-1.79.657-2.6h1.37z"/><path fill="#025676" d="M130.497 12.734c.52-.13 1.21-.27 2.063-.416s1.844-.22 2.967-.22c.814 0 1.498.11 2.052.33s1.01.542 1.39.965c.11-.08.29-.195.53-.342.24-.14.54-.28.9-.42.36-.14.75-.26 1.19-.36.44-.1.91-.16 1.415-.16.976 0 1.772.15 2.392.43.615.29 1.1.69 1.45 1.21.35.52.586 1.14.71 1.86s.18 1.5.18 2.347v7.13h-2.27v-6.65c0-.75-.037-1.39-.11-1.93-.073-.536-.212-.984-.415-1.342-.205-.356-.48-.62-.83-.79-.35-.17-.804-.256-1.357-.256-.764 0-1.395.103-1.89.307s-.835.39-1.01.55c.13.425.23.89.29 1.39.065.508.1 1.038.1 1.59v7.13h-2.27v-6.65c0-.75-.04-1.392-.124-1.93-.08-.537-.223-.985-.426-1.343-.2-.357-.48-.622-.83-.792-.35-.17-.79-.256-1.33-.256-.23 0-.473.01-.73.026-.26.017-.51.037-.746.06-.235.025-.45.054-.645.087s-.326.06-.39.08v10.72h-2.27V12.74zm21.785 6.008c0-1.123.162-2.104.488-2.943.325-.84.757-1.54 1.295-2.09.537-.56 1.155-.97 1.855-1.25s1.416-.42 2.15-.42c1.71 0 3.02.53 3.932 1.6.91 1.06 1.367 2.69 1.367 4.87v.38s-.01.29-.03.42h-8.7c.1 1.316.48 2.32 1.14 3.002.67.683 1.71 1.024 3.124 1.024.8 0 1.47-.07 2.016-.208.544-.14.955-.275 1.23-.406l.317 1.903c-.28.148-.764.304-1.455.466-.69.16-1.48.24-2.36.24-1.11 0-2.064-.164-2.87-.5-.807-.332-1.47-.792-1.99-1.38-.52-.585-.91-1.28-1.16-2.09-.253-.804-.38-1.69-.38-2.65zm8.72-1.246c.016-1.026-.24-1.868-.77-2.528s-1.258-.99-2.187-.99c-.52 0-.98.103-1.38.306-.4.204-.737.468-1.014.794-.27.326-.49.7-.64 1.124-.15.424-.25.855-.3 1.294h6.3zm15.312-10.99l2.27-.39V24.7c-.52.148-1.188.295-2.002.44-.814.147-1.75.22-2.81.22-.977 0-1.855-.154-2.638-.463-.78-.31-1.448-.75-2.002-1.32-.554-.57-.98-1.266-1.282-2.088-.302-.83-.452-1.75-.452-2.78 0-.98.126-1.87.38-2.69.25-.82.62-1.52 1.11-2.1.488-.59 1.087-1.05 1.795-1.37.708-.33 1.518-.49 2.43-.49.732 0 1.38.1 1.942.29.562.192.98.38 1.258.56V6.5zm0 8.548c-.277-.228-.676-.447-1.197-.66-.52-.21-1.09-.317-1.71-.317-.65 0-1.208.118-1.673.354-.464.24-.842.57-1.136.98-.293.42-.504.91-.635 1.48-.13.57-.195 1.18-.195 1.83 0 1.48.366 2.63 1.1 3.43.732.81 1.71 1.21 2.93 1.21.62 0 1.136-.03 1.552-.08.415-.05.736-.11.965-.18v-8.04zm8.768-4.984c-.407 0-.754-.133-1.038-.402-.285-.27-.428-.63-.428-1.087 0-.45.143-.81.428-1.08.284-.27.63-.4 1.038-.4.406 0 .753.14 1.038.41.284.27.427.63.427 1.09 0 .458-.143.82-.427 1.09-.285.27-.632.404-1.038.404zm1.147 14.997h-2.28v-12.7h2.27v12.7zm9.47-13.017c.91 0 1.68.118 2.31.354.62.236 1.13.57 1.51 1 .38.433.65.945.81 1.54.16.595.24 1.25.24 1.966v7.938c-.197.032-.47.076-.82.135-.35.057-.745.11-1.185.158-.44.05-.915.1-1.427.14-.515.04-1.023.06-1.528.06-.717 0-1.377-.07-1.98-.22-.603-.14-1.124-.38-1.563-.69-.44-.31-.78-.73-1.024-1.25-.243-.52-.366-1.15-.366-1.88 0-.7.147-1.303.43-1.81s.67-.91 1.16-1.22 1.06-.536 1.71-.684c.65-.144 1.336-.22 2.05-.22.23 0 .468.015.71.04.246.024.478.057.697.097l.574.11.34.074v-.635c0-.374-.04-.744-.12-1.11-.082-.367-.23-.692-.44-.977-.21-.282-.5-.51-.866-.68-.365-.17-.84-.258-1.43-.258-.747 0-1.4.055-1.964.16s-.98.217-1.26.33l-.27-1.88c.293-.13.78-.255 1.466-.377.682-.125 1.422-.186 2.22-.186zm.19 11.38c.53 0 1.01-.012 1.43-.036.41-.024.76-.07 1.03-.134v-3.786c-.166-.08-.43-.15-.796-.208-.365-.057-.81-.085-1.33-.085-.343 0-.705.03-1.087.08s-.73.15-1.05.31c-.316.16-.58.37-.793.64-.21.27-.312.627-.312 1.066 0 .815.26 1.38.78 1.698.522.32 1.23.478 2.125.478z"/><path fill="#2AAAE2" d="M209.162 25.288c-.538-.018-1.006-.086-1.404-.21-.398-.12-.732-.308-1-.56s-.474-.578-.61-.978c-.14-.398-.21-.9-.21-1.502V6.408l1.588-.293V21.99c0 .39.037.704.11.94s.184.424.33.562c.146.138.338.24.573.305.23.064.51.12.84.172l-.22 1.31zm8.328-13.14c.83 0 1.534.117 2.112.353.578.24 1.047.57 1.404.98.358.42.62.91.782 1.48.162.57.244 1.19.244 1.86v7.96c-.164.05-.4.11-.71.16-.308.06-.666.12-1.073.19-.41.07-.86.12-1.36.16-.5.04-1.01.065-1.53.065-.67 0-1.28-.076-1.85-.22s-1.05-.38-1.47-.7c-.416-.32-.74-.724-.978-1.22s-.354-1.103-.354-1.82c0-.683.13-1.27.39-1.757.26-.49.63-.89 1.1-1.21.473-.315 1.034-.55 1.687-.693.65-.15 1.36-.22 2.126-.22.23 0 .468.01.72.034.253.024.497.057.733.1.234.04.44.08.61.12.17.04.29.08.352.11v-.78c0-.44-.03-.87-.095-1.284-.064-.414-.207-.79-.427-1.122-.22-.335-.53-.604-.93-.81-.4-.202-.924-.304-1.574-.304-.93 0-1.62.065-2.077.195-.458.13-.79.233-1 .315l-.22-1.395c.273-.13.7-.252 1.28-.366.58-.117 1.274-.17 2.09-.17zm.147 11.77c.62 0 1.16-.02 1.624-.06.47-.04.86-.095 1.19-.16v-4.445c-.18-.08-.46-.166-.85-.256s-.93-.135-1.61-.135c-.39 0-.79.03-1.22.086-.42.056-.81.18-1.17.364-.36.188-.65.445-.88.77-.23.326-.34.758-.34 1.295 0 .472.08.87.23 1.196.16.326.38.586.66.78.29.196.63.34 1.03.43.4.09.85.132 1.358.132zm11.503-10.72c.277-.212.72-.436 1.33-.672.61-.236 1.333-.354 2.163-.354.91 0 1.72.163 2.43.488.708.326 1.307.782 1.795 1.368.488.586.858 1.282 1.11 2.088.253.806.38 1.69.38 2.65 0 1.025-.15 1.946-.452 2.76-.302.814-.725 1.506-1.27 2.076-.546.57-1.197 1.006-1.954 1.307s-1.6.45-2.528.45c-1.123 0-2.05-.08-2.784-.22-.732-.15-1.335-.3-1.807-.47V6.41l1.587-.293V13.2zm0 10.38c.244.08.606.158 1.087.23.48.075 1.11.11 1.894.11 1.37 0 2.47-.442 3.3-1.33.83-.887 1.25-2.16 1.25-3.822 0-.7-.07-1.364-.22-1.99-.14-.627-.38-1.173-.71-1.637-.32-.47-.75-.84-1.28-1.12-.53-.28-1.18-.42-1.96-.42-.37 0-.73.03-1.07.11s-.66.16-.95.28c-.293.11-.55.23-.77.36-.22.13-.4.253-.55.367v8.84zm16.705.366c.912 0 1.665-.15 2.26-.45.594-.304.89-.812.89-1.528 0-.342-.052-.635-.157-.88-.106-.243-.28-.463-.525-.658-.244-.196-.566-.383-.965-.562-.4-.18-.892-.392-1.478-.636-.473-.195-.92-.395-1.344-.6-.423-.202-.797-.438-1.123-.708-.326-.268-.586-.59-.78-.963s-.294-.84-.294-1.37c0-1.03.38-1.86 1.15-2.49.77-.64 1.83-.96 3.19-.96.86 0 1.57.07 2.14.22.56.14.95.27 1.18.39l-.37 1.42c-.2-.1-.53-.23-.99-.39-.47-.17-1.15-.25-2.04-.25-.36 0-.7.03-1.02.11-.316.07-.597.18-.84.34-.244.15-.44.35-.587.58-.148.236-.22.525-.22.87s.063.635.193.88c.13.244.32.46.573.647.25.19.56.363.93.525.366.162.785.34 1.26.535.49.196.954.395 1.402.598s.84.444 1.183.73c.34.282.62.624.83 1.023.21.4.32.9.32 1.5 0 1.14-.43 2.006-1.286 2.59s-2.02.88-3.503.88c-1.11 0-1.957-.093-2.54-.28-.59-.185-.98-.33-1.177-.426l.417-1.44c.048.032.153.084.316.16.164.07.384.152.66.24.277.09.607.168.99.23.38.07.826.1 1.33.1z"/><path fill="#AE3529" d="M26.333.1l-8.675.973v32.09l8.675-4.698z"/><path fill="#025676" d="M61.546 0L52.87.972V24.35l8.676 8.71z"/><path fill="#F3723D" d="M26.332.1h-9.45L0 33.163h9.448z"/><path fill="#73256E" d="M43.895 0L35.22.972V33.06l8.675-4.696z"/><path fill="#DA2060" d="M43.893 0h-9.45L17.66 33.162h9.45z"/><path fill="#1EABE2" d="M61.546 0h-9.45L35.22 33.06h9.443zM52.87 24.35l8.676 8.71h7.1v-8.71z"/></svg>